<svg xmlns="http://www.w3.org/2000/svg" width="960" height="640" viewBox="0 0 960 640" role="img" aria-labelledby="t d">
<title id="t">SellSafeKit Katalog-Workflow</title><desc id="d">Illustration eines Etsy-Katalogs, der in Produktgruppen und Status-Spalten sortiert wird.</desc>
<defs><linearGradient id="g" x1="0" y1="0" x2="1" y2="1"><stop stop-color="#fbfaf7"/><stop offset="1" stop-color="#e8f7ec"/></linearGradient><filter id="s" x="-20%" y="-20%" width="140%" height="140%"><feDropShadow dx="0" dy="18" stdDeviation="24" flood-color="#171512" flood-opacity=".12"/></filter></defs>
<rect width="960" height="640" rx="48" fill="url(#g)"/><circle cx="820" cy="98" r="86" fill="#c9f2b1" opacity=".75"/><circle cx="105" cy="545" r="118" fill="#fff3d8" opacity=".9"/>
<g filter="url(#s)"><rect x="110" y="96" width="740" height="448" rx="30" fill="#fff" stroke="#ded8cc"/><rect x="110" y="96" width="740" height="72" rx="30" fill="#173b2b"/><path d="M110 138h740" stroke="#173b2b" stroke-width="60"/>
<text x="150" y="143" font-family="Inter,Arial,sans-serif" font-size="25" font-weight="800" fill="#fff">Listing Tracker</text><text x="690" y="143" font-family="Inter,Arial,sans-serif" font-size="15" font-weight="700" fill="#c9f2b1">80 Listings → 6 Textblöcke</text>
<g font-family="Inter,Arial,sans-serif" font-size="16"><text x="150" y="210" font-weight="800" fill="#615d55">Listing</text><text x="350" y="210" font-weight="800" fill="#615d55">Gruppe</text><text x="535" y="210" font-weight="800" fill="#615d55">Workflow</text><text x="700" y="210" font-weight="800" fill="#615d55">Status</text></g>
<g font-family="Inter,Arial,sans-serif" font-size="17" fill="#171512">
<g><rect x="140" y="232" width="680" height="54" rx="14" fill="#fbfaf7"/><text x="158" y="266">Poster Set A</text><text x="350" y="266">Papierwaren</text><rect x="530" y="247" width="128" height="24" rx="12" fill="#e8f7ec"/><text x="546" y="265" font-size="13" font-weight="800" fill="#17623a">Standard</text><text x="708" y="266">✓ erledigt</text></g>
<g><rect x="140" y="302" width="680" height="54" rx="14" fill="#fff"/><text x="158" y="336">Duftkerze</text><text x="350" y="336">Kerzen</text><rect x="530" y="317" width="128" height="24" rx="12" fill="#fff3d8"/><text x="548" y="335" font-size="13" font-weight="800" fill="#875100">Erst prüfen</text><text x="708" y="336">offen</text></g>
<g><rect x="140" y="372" width="680" height="54" rx="14" fill="#fbfaf7"/><text x="158" y="406">POD-Shirt</text><text x="350" y="406">POD-Profil</text><rect x="530" y="387" width="128" height="24" rx="12" fill="#e8f7ec"/><text x="546" y="405" font-size="13" font-weight="800" fill="#17623a">Standard</text><text x="708" y="406">in Arbeit</text></g>
<g><rect x="140" y="442" width="680" height="54" rx="14" fill="#fff"/><text x="158" y="476">Babybody</text><text x="350" y="476">Fachprüfung</text><rect x="530" y="457" width="146" height="24" rx="12" fill="#ffe7e2"/><text x="546" y="475" font-size="13" font-weight="800" fill="#9f2f2f">Kein Standard</text><text x="708" y="476">separat</text></g></g></g>
</svg>