<svg xmlns="http://www.w3.org/2000/svg" width="960" height="640" viewBox="0 0 960 640" role="img" aria-labelledby="t d">
<title id="t">Etsy-Feldhilfe</title><desc id="d">Illustration, wie vorbereitete Angaben in Etsy-Felder einsortiert werden.</desc>
<defs><filter id="s" x="-20%" y="-20%" width="140%" height="140%"><feDropShadow dx="0" dy="16" stdDeviation="22" flood-color="#171512" flood-opacity=".12"/></filter></defs><rect width="960" height="640" rx="48" fill="#f2efe8"/><circle cx="170" cy="120" r="84" fill="#c9f2b1"/><circle cx="780" cy="540" r="120" fill="#fff3d8"/>
<g filter="url(#s)"><rect x="96" y="92" width="372" height="456" rx="30" fill="#fff" stroke="#ded8cc"/><text x="132" y="146" font-family="Inter,Arial" font-size="27" font-weight="850" fill="#171512">Vorbereitet im Kit</text><g font-family="Inter,Arial" font-size="16"><rect x="132" y="188" width="292" height="62" rx="16" fill="#e8f7ec"/><text x="154" y="215" font-weight="800" fill="#17623a">Herstellerprofil</text><text x="154" y="237" fill="#615d55">Name, Kontakt, Anbieter</text><rect x="132" y="270" width="292" height="62" rx="16" fill="#fbfaf7"/><text x="154" y="297" font-weight="800" fill="#173b2b">Safety Info</text><text x="154" y="319" fill="#615d55">DE/EN-Textvorschlag</text><rect x="132" y="352" width="292" height="62" rx="16" fill="#fff3d8"/><text x="154" y="379" font-weight="800" fill="#875100">Materialien</text><text x="154" y="401" fill="#615d55">listing-individuell prüfen</text></g></g>
<g filter="url(#s)"><rect x="520" y="92" width="344" height="456" rx="30" fill="#fff" stroke="#ded8cc"/><text x="556" y="146" font-family="Inter,Arial" font-size="27" font-weight="850" fill="#171512">Etsy-Felder</text><g font-family="Inter,Arial" font-size="16" fill="#171512"><rect x="556" y="188" width="270" height="52" rx="14" fill="#fbfaf7" stroke="#ded8cc"/><text x="576" y="221" font-weight="800">Manufacturers</text><rect x="556" y="268" width="270" height="52" rx="14" fill="#fbfaf7" stroke="#ded8cc"/><text x="576" y="301" font-weight="800">Product safety info</text><rect x="556" y="348" width="270" height="52" rx="14" fill="#fbfaf7" stroke="#ded8cc"/><text x="576" y="381" font-weight="800">Description / Materials</text></g></g>
<g stroke="#173b2b" stroke-width="5" stroke-linecap="round" fill="none"><path d="M424 219 C470 219 500 214 556 214"/><path d="M424 301 C470 301 500 294 556 294"/><path d="M424 383 C470 383 500 374 556 374"/></g><g fill="#173b2b"><circle cx="556" cy="214" r="7"/><circle cx="556" cy="294" r="7"/><circle cx="556" cy="374" r="7"/></g>
</svg>